<mxfile host="app.diagrams.net" modified="2021-01-19T18:11:12.846Z" agent="5.0 (Windows NT 10.0; Win64; x64) AppleWebKit/537.36 (KHTML, like Gecko) Chrome/87.0.4280.141 Safari/537.36" etag="zhLGGsWGJpiE4ngbVD_Y" version="14.2.4" type="github">
  <diagram id="4QZvZbZm6D8ZqkDao2iP" name="Page-1">
    <mxGraphModel dx="2062" dy="1154" grid="1" gridSize="10" guides="1" tooltips="1" connect="1" arrows="1" fold="1" page="1" pageScale="1" pageWidth="850" pageHeight="1100" math="0" shadow="0">
      <root>
        <mxCell id="0" />
        <mxCell id="1" parent="0" />
        <mxCell id="j2AovLINqO8kEov4aPcL-5" value="" style="aspect=fixed;html=1;points=[];align=center;image;fontSize=12;image=img/lib/azure2/integration/API_Management_Services.svg;" vertex="1" parent="1">
          <mxGeometry x="60" y="480" width="65" height="60" as="geometry" />
        </mxCell>
        <mxCell id="j2AovLINqO8kEov4aPcL-7" value="" style="aspect=fixed;html=1;points=[];align=center;image;fontSize=12;image=img/lib/azure2/security/Key_Vaults.svg;" vertex="1" parent="1">
          <mxGeometry x="80" y="30" width="68" height="68" as="geometry" />
        </mxCell>
        <mxCell id="j2AovLINqO8kEov4aPcL-9" value="" style="aspect=fixed;html=1;points=[];align=center;image;fontSize=12;image=img/lib/azure2/devops/Application_Insights.svg;" vertex="1" parent="1">
          <mxGeometry x="190" y="30" width="44" height="63" as="geometry" />
        </mxCell>
        <mxCell id="j2AovLINqO8kEov4aPcL-23" value="" style="group" vertex="1" connectable="0" parent="1">
          <mxGeometry x="1380" y="130" width="293" height="140" as="geometry" />
        </mxCell>
        <mxCell id="j2AovLINqO8kEov4aPcL-21" value="" style="rounded=1;whiteSpace=wrap;html=1;" vertex="1" parent="j2AovLINqO8kEov4aPcL-23">
          <mxGeometry width="293" height="140" as="geometry" />
        </mxCell>
        <mxCell id="j2AovLINqO8kEov4aPcL-14" value="" style="group" vertex="1" connectable="0" parent="j2AovLINqO8kEov4aPcL-23">
          <mxGeometry x="13" y="44" width="70" height="72" as="geometry" />
        </mxCell>
        <mxCell id="j2AovLINqO8kEov4aPcL-10" value="" style="aspect=fixed;html=1;points=[];align=center;image;fontSize=12;image=img/lib/azure2/general/Storage_Azure_Files.svg;" vertex="1" parent="j2AovLINqO8kEov4aPcL-14">
          <mxGeometry x="3" width="64" height="52" as="geometry" />
        </mxCell>
        <mxCell id="j2AovLINqO8kEov4aPcL-12" value="Azure Files" style="text;html=1;strokeColor=none;fillColor=none;align=center;verticalAlign=middle;whiteSpace=wrap;rounded=0;" vertex="1" parent="j2AovLINqO8kEov4aPcL-14">
          <mxGeometry y="52" width="70" height="20" as="geometry" />
        </mxCell>
        <mxCell id="j2AovLINqO8kEov4aPcL-13" style="edgeStyle=orthogonalEdgeStyle;rounded=0;orthogonalLoop=1;jettySize=auto;html=1;exitX=0.5;exitY=1;exitDx=0;exitDy=0;" edge="1" parent="j2AovLINqO8kEov4aPcL-14" source="j2AovLINqO8kEov4aPcL-12" target="j2AovLINqO8kEov4aPcL-12">
          <mxGeometry relative="1" as="geometry" />
        </mxCell>
        <mxCell id="j2AovLINqO8kEov4aPcL-16" value="" style="group" vertex="1" connectable="0" parent="j2AovLINqO8kEov4aPcL-23">
          <mxGeometry x="103.00000000000011" y="46" width="80" height="69" as="geometry" />
        </mxCell>
        <mxCell id="j2AovLINqO8kEov4aPcL-11" value="" style="aspect=fixed;html=1;points=[];align=center;image;fontSize=12;image=img/lib/mscae/BlobBlock.svg;" vertex="1" parent="j2AovLINqO8kEov4aPcL-16">
          <mxGeometry x="10.839999999999918" width="58.33" height="49" as="geometry" />
        </mxCell>
        <mxCell id="j2AovLINqO8kEov4aPcL-15" value="Blob Storage" style="text;html=1;strokeColor=none;fillColor=none;align=center;verticalAlign=middle;whiteSpace=wrap;rounded=0;" vertex="1" parent="j2AovLINqO8kEov4aPcL-16">
          <mxGeometry y="49" width="80" height="20" as="geometry" />
        </mxCell>
        <mxCell id="j2AovLINqO8kEov4aPcL-20" value="" style="group" vertex="1" connectable="0" parent="j2AovLINqO8kEov4aPcL-23">
          <mxGeometry x="198" y="33" width="80" height="84" as="geometry" />
        </mxCell>
        <mxCell id="j2AovLINqO8kEov4aPcL-8" value="" style="aspect=fixed;html=1;points=[];align=center;image;fontSize=12;image=img/lib/azure2/databases/SQL_Database.svg;" vertex="1" parent="j2AovLINqO8kEov4aPcL-20">
          <mxGeometry x="10" width="48" height="64" as="geometry" />
        </mxCell>
        <mxCell id="j2AovLINqO8kEov4aPcL-17" value="Sql Database" style="text;html=1;strokeColor=none;fillColor=none;align=center;verticalAlign=middle;whiteSpace=wrap;rounded=0;" vertex="1" parent="j2AovLINqO8kEov4aPcL-20">
          <mxGeometry y="64" width="80" height="20" as="geometry" />
        </mxCell>
        <mxCell id="j2AovLINqO8kEov4aPcL-22" value="customer 1" style="text;html=1;strokeColor=none;fillColor=none;align=center;verticalAlign=middle;whiteSpace=wrap;rounded=0;" vertex="1" parent="j2AovLINqO8kEov4aPcL-23">
          <mxGeometry x="13" y="10" width="70" height="20" as="geometry" />
        </mxCell>
        <mxCell id="j2AovLINqO8kEov4aPcL-24" value="" style="group" vertex="1" connectable="0" parent="1">
          <mxGeometry x="1380" y="300" width="293" height="140" as="geometry" />
        </mxCell>
        <mxCell id="j2AovLINqO8kEov4aPcL-25" value="" style="rounded=1;whiteSpace=wrap;html=1;" vertex="1" parent="j2AovLINqO8kEov4aPcL-24">
          <mxGeometry width="293" height="140" as="geometry" />
        </mxCell>
        <mxCell id="j2AovLINqO8kEov4aPcL-26" value="" style="group" vertex="1" connectable="0" parent="j2AovLINqO8kEov4aPcL-24">
          <mxGeometry x="13" y="44" width="70" height="72" as="geometry" />
        </mxCell>
        <mxCell id="j2AovLINqO8kEov4aPcL-27" value="" style="aspect=fixed;html=1;points=[];align=center;image;fontSize=12;image=img/lib/azure2/general/Storage_Azure_Files.svg;" vertex="1" parent="j2AovLINqO8kEov4aPcL-26">
          <mxGeometry x="3" width="64" height="52" as="geometry" />
        </mxCell>
        <mxCell id="j2AovLINqO8kEov4aPcL-28" value="Azure Files" style="text;html=1;strokeColor=none;fillColor=none;align=center;verticalAlign=middle;whiteSpace=wrap;rounded=0;" vertex="1" parent="j2AovLINqO8kEov4aPcL-26">
          <mxGeometry y="52" width="70" height="20" as="geometry" />
        </mxCell>
        <mxCell id="j2AovLINqO8kEov4aPcL-29" style="edgeStyle=orthogonalEdgeStyle;rounded=0;orthogonalLoop=1;jettySize=auto;html=1;exitX=0.5;exitY=1;exitDx=0;exitDy=0;" edge="1" parent="j2AovLINqO8kEov4aPcL-26" source="j2AovLINqO8kEov4aPcL-28" target="j2AovLINqO8kEov4aPcL-28">
          <mxGeometry relative="1" as="geometry" />
        </mxCell>
        <mxCell id="j2AovLINqO8kEov4aPcL-30" value="" style="group" vertex="1" connectable="0" parent="j2AovLINqO8kEov4aPcL-24">
          <mxGeometry x="103.00000000000011" y="46" width="80" height="69" as="geometry" />
        </mxCell>
        <mxCell id="j2AovLINqO8kEov4aPcL-31" value="" style="aspect=fixed;html=1;points=[];align=center;image;fontSize=12;image=img/lib/mscae/BlobBlock.svg;" vertex="1" parent="j2AovLINqO8kEov4aPcL-30">
          <mxGeometry x="10.839999999999918" width="58.33" height="49" as="geometry" />
        </mxCell>
        <mxCell id="j2AovLINqO8kEov4aPcL-32" value="Blob Storage" style="text;html=1;strokeColor=none;fillColor=none;align=center;verticalAlign=middle;whiteSpace=wrap;rounded=0;" vertex="1" parent="j2AovLINqO8kEov4aPcL-30">
          <mxGeometry y="49" width="80" height="20" as="geometry" />
        </mxCell>
        <mxCell id="j2AovLINqO8kEov4aPcL-33" value="" style="group" vertex="1" connectable="0" parent="j2AovLINqO8kEov4aPcL-24">
          <mxGeometry x="198" y="33" width="80" height="84" as="geometry" />
        </mxCell>
        <mxCell id="j2AovLINqO8kEov4aPcL-34" value="" style="aspect=fixed;html=1;points=[];align=center;image;fontSize=12;image=img/lib/azure2/databases/SQL_Database.svg;" vertex="1" parent="j2AovLINqO8kEov4aPcL-33">
          <mxGeometry x="10" width="48" height="64" as="geometry" />
        </mxCell>
        <mxCell id="j2AovLINqO8kEov4aPcL-35" value="Sql Database" style="text;html=1;strokeColor=none;fillColor=none;align=center;verticalAlign=middle;whiteSpace=wrap;rounded=0;" vertex="1" parent="j2AovLINqO8kEov4aPcL-33">
          <mxGeometry y="64" width="80" height="20" as="geometry" />
        </mxCell>
        <mxCell id="j2AovLINqO8kEov4aPcL-36" value="customer 2" style="text;html=1;strokeColor=none;fillColor=none;align=center;verticalAlign=middle;whiteSpace=wrap;rounded=0;" vertex="1" parent="j2AovLINqO8kEov4aPcL-24">
          <mxGeometry x="13" y="10" width="70" height="20" as="geometry" />
        </mxCell>
        <mxCell id="j2AovLINqO8kEov4aPcL-37" value="" style="group" vertex="1" connectable="0" parent="1">
          <mxGeometry x="1380" y="680" width="293" height="140" as="geometry" />
        </mxCell>
        <mxCell id="j2AovLINqO8kEov4aPcL-38" value="" style="rounded=1;whiteSpace=wrap;html=1;" vertex="1" parent="j2AovLINqO8kEov4aPcL-37">
          <mxGeometry width="293" height="140" as="geometry" />
        </mxCell>
        <mxCell id="j2AovLINqO8kEov4aPcL-39" value="" style="group" vertex="1" connectable="0" parent="j2AovLINqO8kEov4aPcL-37">
          <mxGeometry x="13" y="44" width="70" height="72" as="geometry" />
        </mxCell>
        <mxCell id="j2AovLINqO8kEov4aPcL-40" value="" style="aspect=fixed;html=1;points=[];align=center;image;fontSize=12;image=img/lib/azure2/general/Storage_Azure_Files.svg;" vertex="1" parent="j2AovLINqO8kEov4aPcL-39">
          <mxGeometry x="3" width="64" height="52" as="geometry" />
        </mxCell>
        <mxCell id="j2AovLINqO8kEov4aPcL-41" value="Azure Files" style="text;html=1;strokeColor=none;fillColor=none;align=center;verticalAlign=middle;whiteSpace=wrap;rounded=0;" vertex="1" parent="j2AovLINqO8kEov4aPcL-39">
          <mxGeometry y="52" width="70" height="20" as="geometry" />
        </mxCell>
        <mxCell id="j2AovLINqO8kEov4aPcL-42" style="edgeStyle=orthogonalEdgeStyle;rounded=0;orthogonalLoop=1;jettySize=auto;html=1;exitX=0.5;exitY=1;exitDx=0;exitDy=0;" edge="1" parent="j2AovLINqO8kEov4aPcL-39" source="j2AovLINqO8kEov4aPcL-41" target="j2AovLINqO8kEov4aPcL-41">
          <mxGeometry relative="1" as="geometry" />
        </mxCell>
        <mxCell id="j2AovLINqO8kEov4aPcL-43" value="" style="group" vertex="1" connectable="0" parent="j2AovLINqO8kEov4aPcL-37">
          <mxGeometry x="103.00000000000011" y="46" width="80" height="69" as="geometry" />
        </mxCell>
        <mxCell id="j2AovLINqO8kEov4aPcL-44" value="" style="aspect=fixed;html=1;points=[];align=center;image;fontSize=12;image=img/lib/mscae/BlobBlock.svg;" vertex="1" parent="j2AovLINqO8kEov4aPcL-43">
          <mxGeometry x="10.839999999999918" width="58.33" height="49" as="geometry" />
        </mxCell>
        <mxCell id="j2AovLINqO8kEov4aPcL-45" value="Blob Storage" style="text;html=1;strokeColor=none;fillColor=none;align=center;verticalAlign=middle;whiteSpace=wrap;rounded=0;" vertex="1" parent="j2AovLINqO8kEov4aPcL-43">
          <mxGeometry y="49" width="80" height="20" as="geometry" />
        </mxCell>
        <mxCell id="j2AovLINqO8kEov4aPcL-46" value="" style="group" vertex="1" connectable="0" parent="j2AovLINqO8kEov4aPcL-37">
          <mxGeometry x="198" y="33" width="80" height="84" as="geometry" />
        </mxCell>
        <mxCell id="j2AovLINqO8kEov4aPcL-47" value="" style="aspect=fixed;html=1;points=[];align=center;image;fontSize=12;image=img/lib/azure2/databases/SQL_Database.svg;" vertex="1" parent="j2AovLINqO8kEov4aPcL-46">
          <mxGeometry x="10" width="48" height="64" as="geometry" />
        </mxCell>
        <mxCell id="j2AovLINqO8kEov4aPcL-48" value="Sql Database" style="text;html=1;strokeColor=none;fillColor=none;align=center;verticalAlign=middle;whiteSpace=wrap;rounded=0;" vertex="1" parent="j2AovLINqO8kEov4aPcL-46">
          <mxGeometry y="64" width="80" height="20" as="geometry" />
        </mxCell>
        <mxCell id="j2AovLINqO8kEov4aPcL-49" value="customer N" style="text;html=1;strokeColor=none;fillColor=none;align=center;verticalAlign=middle;whiteSpace=wrap;rounded=0;" vertex="1" parent="j2AovLINqO8kEov4aPcL-37">
          <mxGeometry x="13" y="10" width="70" height="20" as="geometry" />
        </mxCell>
        <mxCell id="j2AovLINqO8kEov4aPcL-50" value="" style="rounded=1;whiteSpace=wrap;html=1;" vertex="1" parent="1">
          <mxGeometry x="260" y="140" width="1000" height="1160" as="geometry" />
        </mxCell>
        <mxCell id="j2AovLINqO8kEov4aPcL-52" value="" style="group" vertex="1" connectable="0" parent="1">
          <mxGeometry x="290" y="150" width="120" height="90" as="geometry" />
        </mxCell>
        <mxCell id="j2AovLINqO8kEov4aPcL-1" value="" style="aspect=fixed;html=1;points=[];align=center;image;fontSize=12;image=img/lib/azure2/compute/Service_Fabric_Clusters.svg;" vertex="1" parent="j2AovLINqO8kEov4aPcL-52">
          <mxGeometry x="26.5" width="67" height="64" as="geometry" />
        </mxCell>
        <mxCell id="j2AovLINqO8kEov4aPcL-51" value="Service Fabric Cluster (shared)" style="text;html=1;strokeColor=none;fillColor=none;align=center;verticalAlign=middle;whiteSpace=wrap;rounded=0;" vertex="1" parent="j2AovLINqO8kEov4aPcL-52">
          <mxGeometry y="70" width="120" height="20" as="geometry" />
        </mxCell>
        <mxCell id="j2AovLINqO8kEov4aPcL-58" value="" style="group" vertex="1" connectable="0" parent="1">
          <mxGeometry x="470" y="410" width="320" height="630" as="geometry" />
        </mxCell>
        <mxCell id="j2AovLINqO8kEov4aPcL-55" value="" style="rounded=1;whiteSpace=wrap;html=1;fillColor=#dae8fc;strokeColor=#6c8ebf;" vertex="1" parent="j2AovLINqO8kEov4aPcL-58">
          <mxGeometry x="17.79" width="302.21" height="630" as="geometry" />
        </mxCell>
        <mxCell id="j2AovLINqO8kEov4aPcL-53" value="" style="aspect=fixed;html=1;points=[];align=center;image;fontSize=12;image=img/lib/azure2/compute/VM_Scale_Sets.svg;" vertex="1" parent="j2AovLINqO8kEov4aPcL-58">
          <mxGeometry x="31.46625766871166" y="6" width="34" height="34" as="geometry" />
        </mxCell>
        <mxCell id="j2AovLINqO8kEov4aPcL-56" value="&lt;font style=&quot;font-size: 9px&quot;&gt;Front-end node-type&lt;/font&gt;" style="text;html=1;strokeColor=none;fillColor=none;align=center;verticalAlign=middle;whiteSpace=wrap;rounded=0;" vertex="1" parent="j2AovLINqO8kEov4aPcL-58">
          <mxGeometry x="17.785276073619634" y="35" width="127.23312883435584" height="20" as="geometry" />
        </mxCell>
        <mxCell id="j2AovLINqO8kEov4aPcL-59" value="" style="group" vertex="1" connectable="0" parent="1">
          <mxGeometry x="530" y="180" width="163" height="180" as="geometry" />
        </mxCell>
        <mxCell id="j2AovLINqO8kEov4aPcL-60" value="" style="rounded=1;whiteSpace=wrap;html=1;fillColor=#dae8fc;strokeColor=#6c8ebf;" vertex="1" parent="j2AovLINqO8kEov4aPcL-59">
          <mxGeometry x="13" width="150" height="180" as="geometry" />
        </mxCell>
        <mxCell id="j2AovLINqO8kEov4aPcL-61" value="" style="aspect=fixed;html=1;points=[];align=center;image;fontSize=12;image=img/lib/azure2/compute/VM_Scale_Sets.svg;" vertex="1" parent="j2AovLINqO8kEov4aPcL-59">
          <mxGeometry x="23" y="6" width="34" height="34" as="geometry" />
        </mxCell>
        <mxCell id="j2AovLINqO8kEov4aPcL-62" value="&lt;font style=&quot;font-size: 9px&quot;&gt;Primary node-type&lt;/font&gt;" style="text;html=1;strokeColor=none;fillColor=none;align=center;verticalAlign=middle;whiteSpace=wrap;rounded=0;" vertex="1" parent="j2AovLINqO8kEov4aPcL-59">
          <mxGeometry x="10" y="35" width="93" height="20" as="geometry" />
        </mxCell>
        <mxCell id="j2AovLINqO8kEov4aPcL-67" value="" style="html=1;aspect=fixed;strokeColor=none;shadow=0;align=center;verticalAlign=top;fillColor=#3B8DF1;shape=mxgraph.gcp2.bucket_scale" vertex="1" parent="j2AovLINqO8kEov4aPcL-59">
          <mxGeometry x="45.7" y="70" width="71.6" height="58" as="geometry" />
        </mxCell>
        <mxCell id="j2AovLINqO8kEov4aPcL-69" value="&lt;font style=&quot;font-size: 9px&quot;&gt;System Services&lt;/font&gt;" style="text;html=1;strokeColor=none;fillColor=none;align=center;verticalAlign=middle;whiteSpace=wrap;rounded=0;" vertex="1" parent="j2AovLINqO8kEov4aPcL-59">
          <mxGeometry x="41.5" y="128" width="93" height="20" as="geometry" />
        </mxCell>
        <mxCell id="j2AovLINqO8kEov4aPcL-72" value="" style="rounded=1;whiteSpace=wrap;html=1;" vertex="1" parent="1">
          <mxGeometry x="800" y="250" width="420" height="120" as="geometry" />
        </mxCell>
        <mxCell id="j2AovLINqO8kEov4aPcL-73" value="" style="group" vertex="1" connectable="0" parent="1">
          <mxGeometry x="800" y="252" width="65.25" height="50" as="geometry" />
        </mxCell>
        <mxCell id="j2AovLINqO8kEov4aPcL-70" value="" style="verticalLabelPosition=bottom;html=1;verticalAlign=top;align=center;strokeColor=none;shape=mxgraph.azure.cloud_service_package_file;fillColor=#FF9933;" vertex="1" parent="j2AovLINqO8kEov4aPcL-73">
          <mxGeometry x="17.715725806451612" width="29.81854838709677" height="35.714285714285715" as="geometry" />
        </mxCell>
        <mxCell id="j2AovLINqO8kEov4aPcL-71" value="&lt;font style=&quot;font-size: 8px&quot;&gt;multi-tenant app&lt;/font&gt;" style="text;html=1;strokeColor=none;fillColor=none;align=center;verticalAlign=middle;whiteSpace=wrap;rounded=0;" vertex="1" parent="j2AovLINqO8kEov4aPcL-73">
          <mxGeometry y="35.714285714285715" width="65.25" height="14.285714285714286" as="geometry" />
        </mxCell>
        <mxCell id="j2AovLINqO8kEov4aPcL-77" value="" style="html=1;aspect=fixed;strokeColor=none;shadow=0;align=center;verticalAlign=top;fillColor=#3B8DF1;shape=mxgraph.gcp2.bucket_scale" vertex="1" parent="1">
          <mxGeometry x="974.2" y="282" width="71.6" height="58" as="geometry" />
        </mxCell>
        <mxCell id="j2AovLINqO8kEov4aPcL-78" value="&lt;font style=&quot;font-size: 9px&quot;&gt;multi-tenant services&lt;/font&gt;" style="text;html=1;strokeColor=none;fillColor=none;align=center;verticalAlign=middle;whiteSpace=wrap;rounded=0;" vertex="1" parent="1">
          <mxGeometry x="970" y="340" width="93" height="20" as="geometry" />
        </mxCell>
      </root>
    </mxGraphModel>
  </diagram>
</mxfile>
